<svg xmlns="http://www.w3.org/2000/svg" viewBox="50 50 400 400">
  <path fill="#161310" d="M333.016,155.024l-13.852,117.448c-1.036,8.264-1.548,16.176-1.548,23.748 c0,11.272,4.044,16.868,12.132,16.868c12.908,0,25.3-8.86,37.172-26.588s17.72-39.24,17.72-64.444 c0-36.4-13.076-66.084-39.404-88.796c-26.328-22.808-58.164-34.16-95.68-34.16c-41.128,0-75.72,14.112-103.684,42.332 c-28.052,28.224-41.988,62.988-41.988,104.372c0,38.632,13.168,72.188,39.408,100.664c26.328,28.484,63.24,42.768,110.824,42.768 c36.996,0,74.688-9.896,113.148-29.772l14.884,34.328c-41.128,20.992-83.892,31.492-128.028,31.492 c-58.68,0-105.228-17.724-139.82-53.088c-34.504-35.36-51.8-77.608-51.8-126.656c0-51.28,18.16-94.128,54.468-128.544 c36.304-34.504,80.188-51.712,131.556-51.712c48.444,0,89.14,14.884,122.008,44.484c32.956,29.684,49.476,67.116,49.476,112.288 c0,32.78-9.292,62.032-27.792,87.672c-18.5,25.556-40.956,38.376-67.544,38.376c-20.652,0-34.932-8.688-42.852-26.156 c-14.456,18.152-32.092,27.188-52.916,27.188c-21.336,0-39.664-8.86-54.812-26.756c-15.228-17.812-22.8-41.216-22.8-70.296 c0-29.944,8.52-54.208,25.644-72.968c17.208-18.756,37.6-28.136,61.26-28.136c22.888,0,39.32,7.228,49.388,21.68l2.068-17.64h43.364 V155.024z M232.18,308.096c13.42,0,25.552-6.536,36.396-19.616c10.84-12.992,16.264-29.944,16.264-50.768 c0-11.788-4.132-22.28-12.476-31.66c-8.264-9.292-18.5-13.94-30.632-13.94c-13.08,0-23.924,5.764-32.528,17.296 c-8.52,11.444-12.82,26.416-12.82,44.744c0,15.572,3.272,28.476,9.984,38.632C212.988,302.932,221.592,308.096,232.18,308.096z"/>
</svg>
