<svg xmlns="http://www.w3.org/2000/svg" viewBox="0 0 70 92">
  <g fill="#0093dd">
    <rect width="70" height="47.099998" x="0" y="44.900002"/>
    <rect width="15.009007" height="19.485378" x="4.7396865" y="25.468845"/>
    <rect width="15.18455" height="19.239996" x="50.117794" y="25.694933"/>
    <path d="M 35.625,0 C 13.155955,0.16164779 4.75,20.998357 4.75,25.5625 C 10.896546,25.562499 17.561658,25.90625 18.96875,25.90625 C 19.298759,25.90625 19.367598,25.906322 19.6875,25.90625 C 21.365862,19.035999 27.552617,13.9375 34.9375,13.9375 C 42.289526,13.9375 48.445364,18.988532 50.15625,25.8125 C 50.543323,25.812313 50.720292,25.8125 51.125,25.8125 C 63.764162,25.8125 65.25,25.90625 65.25,25.90625 C 65.25,25.90625 60.201152,-0.17554394 35.625,0 z"/>
  </g>
  <g fill="#fff">
    <path d="M 10.269321,25.20553 C 21.691029,1.9172856 37.700972,5.1573508 46.958242,6.5921309 C 46.958242,6.5921309 34.785164,0.76242296 23.084029,6.5100997 C 11.608567,12.146925 10.269321,25.20553 10.269321,25.20553 z"/>
    <path d="M -0.25,68.25 C -0.25,68.25 7.5390098,59.548683 13.8125,57.25 C 22,54.25 32,55.1875 48.5625,51.875 C 54.425075,50.702485 56.25,49.25 65.1875,44.625 C 65.942492,44.234305 70.5625,44.3125 70.5625,44.3125 L 70.1875,50.5625 C 60,61.25 36.75,67.21875 34.8125,67.125 C 54.479984,69.763423 64.97809,59.568082 69.25,58.9375 C 59.3125,80.0625 24.0625,79 24.0625,79 C 44.5,84.5625 61.125,76.25 61.125,76.25 C 51.8125,91.65625 17.4375,89.5625 17.4375,89.5625 C 13.84375,89.875 10.9375,92.1875 10.9375,92.1875 L -0.125,92.5 L -0.25,68.25 z"/>
  </g>
</svg>
