<svg xmlns="http://www.w3.org/2000/svg" viewBox="-5 -5 160 160">
  <path fill="#ffe204" d="m 145,75 -14.0625,0 c 0,30.89731 -25.04019,55.9375 -55.9375,55.9375 L 75,145 c 38.65993,0 70,-31.34007 70,-70 z"/>
  <path fill="#00a51d" d="m 75,19.0625 c 30.89731,0 55.9375,25.040194 55.9375,55.9375 L 145,75 C 145,36.340068 113.65993,5 75,5 l 0,14.0625 z"/>
  <path fill="#1a6ae9" d="m 5,75 c 0,38.65993 31.340068,70 70,70 l 0,-14.0625 C 44.102694,130.9375 19.0625,105.89731 19.0625,75 L 5,75 z"/>
  <path fill="#ff2a04" d="m 5,75 14.0625,0 C 19.0625,44.102694 44.102694,19.0625 75,19.0625 L 75,5 C 36.340068,5 5,36.340068 5,75 z"/>
  <path fill="#000" transform="translate(-480,-623)" d="m 534.85259,667.08503 c -2.1268,0.13338 -3.97262,2.10227 -3.96866,4.23324 l 0,53.23295 c 0.004,1.48609 0.8547,2.94108 2.14793,3.6732 1.29324,0.73212 2.97862,0.71291 4.25484,-0.0485 l 44.76648,-26.61648 c 1.25373,-0.74628 2.06818,-2.17891 2.06818,-3.63794 0,-1.45903 -0.81445,-2.89166 -2.06818,-3.63794 L 537.2867,667.69353 c -0.72572,-0.44077 -1.58635,-0.65593 -2.43411,-0.60852 z"/>
</svg>
